<svg width="437" height="327" viewBox="0 0 437 327" fill="none" xmlns="http://www.w3.org/2000/svg">
<g clip-path="url(#clip0)">
<path opacity="0.25" d="M414.68 126.435V97.2781H397.364V126.435H376.858V81.3331H361.82V47.6209H349.516V12.9974H323.997V47.6209H311.694V81.3331H297.112V40.7873H288.909V20.2866H283.896V40.7873H254.732V170.17H232.403V156.502H218.732V170.17H196.403V126.435H156.303V97.2781H138.986V126.435H138.075V182.47H119.847V149.669H97.9739V182.47H79.7462V81.3331H65.6197V47.6209H13.6708V81.3331H0V259.462H79.7462H138.075H196.403H254.732H297.112H376.858H435.186V126.435H414.68Z" fill="#EBEBEB"/>
<path opacity="0.4" d="M27.7972 91.8113H8.65814V102.745H27.7972V91.8113Z" fill="white"/>
<path opacity="0.4" d="M51.4932 102.745H70.6323V91.8113H51.4932V102.745Z" fill="white"/>
<path opacity="0.4" d="M27.7972 113.223H8.65814V124.157H27.7972V113.223Z" fill="white"/>
<path opacity="0.4" d="M51.4932 124.157H70.6323V113.223H51.4932V124.157Z" fill="white"/>
<path opacity="0.4" d="M27.7972 134.635H8.65814V145.569H27.7972V134.635Z" fill="white"/>
<path opacity="0.4" d="M51.4932 145.569H70.6323V134.635H51.4932V145.569Z" fill="white"/>
<path opacity="0.4" d="M27.7972 156.047H8.65814V166.981H27.7972V156.047Z" fill="white"/>
<path opacity="0.4" d="M51.4932 166.981H70.6323V156.047H51.4932V166.981Z" fill="white"/>
<path opacity="0.4" d="M27.7972 177.459H8.65814V188.392H27.7972V177.459Z" fill="white"/>
<path opacity="0.4" d="M51.4932 188.392H70.6323V177.459H51.4932V188.392Z" fill="white"/>
<path opacity="0.4" d="M27.7972 198.871H8.65814V209.804H27.7972V198.871Z" fill="white"/>
<path opacity="0.4" d="M51.4932 209.804H70.6323V198.871H51.4932V209.804Z" fill="white"/>
<path opacity="0.4" d="M27.7972 220.282H8.65814V231.216H27.7972V220.282Z" fill="white"/>
<path opacity="0.4" d="M51.4932 231.216H70.6323V220.282H51.4932V231.216Z" fill="white"/>
<path opacity="0.4" d="M131.239 193.404H86.5816V198.871H131.239V193.404Z" fill="white"/>
<path opacity="0.4" d="M131.239 201.604H86.5816V207.071H131.239V201.604Z" fill="white"/>
<path opacity="0.4" d="M131.239 209.804H86.5816V215.271H131.239V209.804Z" fill="white"/>
<path opacity="0.4" d="M247.897 196.137H203.239V201.604H247.897V196.137Z" fill="white"/>
<path opacity="0.4" d="M247.897 204.337H203.239V209.804H247.897V204.337Z" fill="white"/>
<path opacity="0.4" d="M247.897 212.538H203.239V218.005H247.897V212.538Z" fill="white"/>
<path opacity="0.4" d="M131.239 218.005H86.5816V223.471H131.239V218.005Z" fill="white"/>
<path opacity="0.4" d="M131.239 226.205H86.5816V231.672H131.239V226.205Z" fill="white"/>
<path opacity="0.4" d="M131.239 234.405H86.5816V239.872H131.239V234.405Z" fill="white"/>
<path opacity="0.4" d="M159.948 136.913H147.644V152.858H159.948V136.913Z" fill="white"/>
<path opacity="0.4" d="M174.53 152.858H186.834V136.913H174.53V152.858Z" fill="white"/>
<path opacity="0.4" d="M159.948 162.425H147.644V178.37H159.948V162.425Z" fill="white"/>
<path opacity="0.4" d="M174.53 178.37H186.834V162.425H174.53V178.37Z" fill="white"/>
<path opacity="0.4" d="M159.948 187.937H147.644V203.882H159.948V187.937Z" fill="white"/>
<path opacity="0.4" d="M174.53 203.882H186.834V187.937H174.53V203.882Z" fill="white"/>
<path opacity="0.4" d="M159.948 213.449H147.644V229.394H159.948V213.449Z" fill="white"/>
<path opacity="0.4" d="M174.53 229.394H186.834V213.449H174.53V229.394Z" fill="white"/>
<path opacity="0.4" d="M271.137 51.2654H254.732V72.2217H271.137V51.2654Z" fill="white"/>
<path opacity="0.4" d="M271.137 81.3331H254.732V102.289H271.137V81.3331Z" fill="white"/>
<path opacity="0.4" d="M271.137 111.401H254.732V132.357H271.137V111.401Z" fill="white"/>
<path opacity="0.4" d="M271.137 141.469H254.732V162.425H271.137V141.469Z" fill="white"/>
<path opacity="0.4" d="M271.137 171.536H254.732V192.493H271.137V171.536Z" fill="white"/>
<path opacity="0.4" d="M271.137 201.604H254.732V222.56H271.137V201.604Z" fill="white"/>
<path opacity="0.4" d="M367.516 94.0891H306.453V111.856H367.516V94.0891Z" fill="white"/>
<path opacity="0.4" d="M367.744 132.357H306.681V150.124H367.744V132.357Z" fill="white"/>
<path opacity="0.4" d="M367.972 170.625H306.909V188.392H367.972V170.625Z" fill="white"/>
<path opacity="0.4" d="M368.2 208.893H307.137V226.66H368.2V208.893Z" fill="white"/>
<path opacity="0.4" d="M21.8732 57.1879H13.6708V74.4996H21.8732V57.1879Z" fill="white"/>
<path opacity="0.4" d="M435.186 136.913H414.68V163.336H435.186V136.913Z" fill="white"/>
<path opacity="0.4" d="M435.186 175.181H414.68V201.604H435.186V175.181Z" fill="white"/>
<path opacity="0.4" d="M435.186 213.449H414.68V239.872H435.186V213.449Z" fill="white"/>
<path opacity="0.1" d="M120.613 34.7191H117.478C117.774 34.7326 118.07 34.6859 118.348 34.5817C118.626 34.4776 118.88 34.3182 119.095 34.1132C119.31 33.9081 119.48 33.6618 119.597 33.3889C119.714 33.116 119.774 32.8223 119.774 32.5255C119.774 32.2287 119.714 31.935 119.597 31.6621C119.48 31.3893 119.31 31.1429 119.095 30.9378C118.88 30.7328 118.626 30.5734 118.348 30.4693C118.07 30.3651 117.774 30.3184 117.478 30.3319H92.0818C91.5172 30.3577 90.9842 30.6 90.5937 31.0086C90.2033 31.4171 89.9854 31.9604 89.9854 32.5255C89.9854 33.0906 90.2033 33.6339 90.5937 34.0424C90.9842 34.451 91.5172 34.6934 92.0818 34.7191H95.217C94.9204 34.7056 94.6242 34.7523 94.3462 34.8564C94.0682 34.9606 93.8143 35.12 93.5996 35.325C93.385 35.53 93.2141 35.7764 93.0974 36.0493C92.9807 36.3222 92.9205 36.6159 92.9205 36.9127C92.9205 37.2094 92.9807 37.5031 93.0974 37.776C93.2141 38.0489 93.385 38.2953 93.5996 38.5003C93.8143 38.7053 94.0682 38.8647 94.3462 38.9689C94.6242 39.073 94.9204 39.1197 95.217 39.1062H90.8286C90.264 39.132 89.731 39.3743 89.3406 39.7829C88.9501 40.1914 88.7322 40.7347 88.7322 41.2998C88.7322 41.8649 88.9501 42.4082 89.3406 42.8168C89.731 43.2253 90.264 43.4677 90.8286 43.4934H116.224C116.789 43.4677 117.322 43.2253 117.712 42.8168C118.103 42.4082 118.321 41.8649 118.321 41.2998C118.321 40.7347 118.103 40.1914 117.712 39.7829C117.322 39.3743 116.789 39.132 116.224 39.1062H120.613C120.909 39.1197 121.205 39.073 121.483 38.9689C121.761 38.8647 122.015 38.7053 122.23 38.5003C122.445 38.2953 122.616 38.0489 122.732 37.776C122.849 37.5031 122.909 37.2094 122.909 36.9127C122.909 36.6159 122.849 36.3222 122.732 36.0493C122.616 35.7764 122.445 35.53 122.23 35.325C122.015 35.12 121.761 34.9606 121.483 34.8564C121.205 34.7523 120.909 34.7056 120.613 34.7191Z" fill="#252223"/>
<path opacity="0.1" d="M232.713 89.8432H229.578C229.874 89.8567 230.171 89.81 230.449 89.7059C230.727 89.6017 230.981 89.4423 231.195 89.2373C231.41 89.0323 231.581 88.7859 231.697 88.513C231.814 88.2401 231.874 87.9464 231.874 87.6497C231.874 87.3529 231.814 87.0592 231.697 86.7863C231.581 86.5134 231.41 86.267 231.195 86.062C230.981 85.857 230.727 85.6976 230.449 85.5934C230.171 85.4893 229.874 85.4426 229.578 85.4561H204.182C203.618 85.4818 203.085 85.7242 202.694 86.1327C202.304 86.5413 202.086 87.0846 202.086 87.6497C202.086 88.2147 202.304 88.758 202.694 89.1666C203.085 89.5751 203.618 89.8175 204.182 89.8432H207.317C207.021 89.8297 206.725 89.8764 206.447 89.9806C206.169 90.0847 205.915 90.2441 205.7 90.4491C205.485 90.6542 205.314 90.9006 205.198 91.1734C205.081 91.4463 205.021 91.74 205.021 92.0368C205.021 92.3336 205.081 92.6273 205.198 92.9002C205.314 93.1731 205.485 93.4194 205.7 93.6245C205.915 93.8295 206.169 93.9889 206.447 94.093C206.725 94.1972 207.021 94.2439 207.317 94.2304H202.929C202.632 94.2169 202.336 94.2636 202.058 94.3677C201.78 94.4719 201.526 94.6313 201.312 94.8363C201.097 95.0413 200.926 95.2877 200.809 95.5606C200.693 95.8335 200.633 96.1272 200.633 96.424C200.633 96.7208 200.693 97.0144 200.809 97.2873C200.926 97.5602 201.097 97.8066 201.312 98.0116C201.526 98.2167 201.78 98.376 202.058 98.4802C202.336 98.5843 202.632 98.631 202.929 98.6175H228.325C228.621 98.631 228.918 98.5843 229.195 98.4802C229.473 98.376 229.727 98.2167 229.942 98.0116C230.157 97.8066 230.328 97.5602 230.444 97.2873C230.561 97.0144 230.621 96.7208 230.621 96.424C230.621 96.1272 230.561 95.8335 230.444 95.5606C230.328 95.2877 230.157 95.0413 229.942 94.8363C229.727 94.6313 229.473 94.4719 229.195 94.3677C228.918 94.2636 228.621 94.2169 228.325 94.2304H232.713C233.01 94.2439 233.306 94.1972 233.584 94.093C233.862 93.9889 234.116 93.8295 234.33 93.6245C234.545 93.4194 234.716 93.1731 234.833 92.9002C234.949 92.6273 235.01 92.3336 235.01 92.0368C235.01 91.74 234.949 91.4463 234.833 91.1734C234.716 90.9006 234.545 90.6542 234.33 90.4491C234.116 90.2441 233.862 90.0847 233.584 89.9806C233.306 89.8764 233.01 89.8297 232.713 89.8432Z" fill="#252223"/>
<path opacity="0.1" d="M423.648 17.8629H420.513C420.81 17.8765 421.106 17.8297 421.384 17.7256C421.662 17.6214 421.916 17.462 422.13 17.257C422.345 17.052 422.516 16.8056 422.633 16.5327C422.749 16.2598 422.81 15.9661 422.81 15.6694C422.81 15.3726 422.749 15.0789 422.633 14.806C422.516 14.5331 422.345 14.2867 422.13 14.0817C421.916 13.8767 421.662 13.7173 421.384 13.6131C421.106 13.509 420.81 13.4623 420.513 13.4758H395.117C394.553 13.5015 394.02 13.7439 393.629 14.1524C393.239 14.561 393.021 15.1043 393.021 15.6694C393.021 16.2344 393.239 16.7777 393.629 17.1863C394.02 17.5949 394.553 17.8372 395.117 17.8629H398.252C397.956 17.8494 397.66 17.8961 397.382 18.0003C397.104 18.1044 396.85 18.2638 396.635 18.4689C396.42 18.6739 396.25 18.9203 396.133 19.1931C396.016 19.466 395.956 19.7597 395.956 20.0565C395.956 20.3533 396.016 20.647 396.133 20.9199C396.25 21.1928 396.42 21.4392 396.635 21.6442C396.85 21.8492 397.104 22.0086 397.382 22.1127C397.66 22.2169 397.956 22.2636 398.252 22.2501H393.864C393.568 22.2366 393.271 22.2833 392.993 22.3874C392.715 22.4916 392.461 22.651 392.247 22.856C392.032 23.061 391.861 23.3074 391.745 23.5803C391.628 23.8532 391.568 24.1469 391.568 24.4437C391.568 24.7404 391.628 25.0341 391.745 25.307C391.861 25.5799 392.032 25.8263 392.247 26.0313C392.461 26.2363 392.715 26.3957 392.993 26.4999C393.271 26.604 393.568 26.6508 393.864 26.6372H419.26C419.556 26.6508 419.853 26.604 420.131 26.4999C420.409 26.3957 420.663 26.2363 420.877 26.0313C421.092 25.8263 421.263 25.5799 421.379 25.307C421.496 25.0341 421.556 24.7404 421.556 24.4437C421.556 24.1469 421.496 23.8532 421.379 23.5803C421.263 23.3074 421.092 23.061 420.877 22.856C420.663 22.651 420.409 22.4916 420.131 22.3874C419.853 22.2833 419.556 22.2366 419.26 22.2501H423.648C423.945 22.2636 424.241 22.2169 424.519 22.1127C424.797 22.0086 425.051 21.8492 425.266 21.6442C425.48 21.4392 425.651 21.1928 425.768 20.9199C425.884 20.647 425.945 20.3533 425.945 20.0565C425.945 19.7597 425.884 19.466 425.768 19.1931C425.651 18.9203 425.48 18.6739 425.266 18.4689C425.051 18.2638 424.797 18.1044 424.519 18.0003C424.241 17.8961 423.945 17.8494 423.648 17.8629Z" fill="#252223"/>
<path d="M363.665 2.06832C359.825 2.03162 355.986 2.263 352.177 2.76078C352.177 2.02979 351.887 1.32874 351.37 0.811852C350.853 0.294963 350.152 0.00457764 349.42 0.00457764C348.689 0.00457764 347.988 0.294963 347.471 0.811852C346.954 1.32874 346.664 2.02979 346.664 2.76078C342.855 2.263 339.016 2.03162 335.176 2.06832C326.677 2.06832 319.782 2.97946 319.782 4.13661C319.782 5.29376 326.672 6.2049 335.176 6.2049C339.016 6.2416 342.855 6.01022 346.664 5.51243C346.663 5.84399 346.724 6.1728 346.841 6.4828C346.592 6.63605 346.384 6.84689 346.234 7.09754C346.084 7.34818 345.996 7.63128 345.978 7.92295C345.96 8.21462 346.013 8.50631 346.131 8.77341C346.25 9.04052 346.431 9.27521 346.659 9.45768C345.99 9.68579 345.376 10.0507 344.856 10.5292C344.336 11.0076 343.921 11.5891 343.638 12.2367C342.875 11.6545 341.953 11.3191 340.995 11.2754L312.373 9.99981C311.331 8.60614 309.978 7.47478 308.422 6.69576C306.866 5.91673 305.15 5.51154 303.409 5.51243H285.391C283.637 5.51162 281.906 5.92358 280.341 6.715C278.775 7.50642 277.417 8.65509 276.378 10.0681L249.191 11.2845C248.304 11.3236 247.446 11.6126 246.716 12.1182C246.181 10.9711 245.237 10.0648 244.069 9.57613C244.362 9.38969 244.595 9.12353 244.742 8.80896C244.889 8.49438 244.942 8.14448 244.897 7.8004C244.851 7.45632 244.709 7.13238 244.485 6.86669C244.262 6.60099 243.967 6.40459 243.636 6.30057C243.712 6.04483 243.751 5.7793 243.75 5.51243C247.558 6.01023 251.397 6.24162 255.238 6.2049C263.737 6.2049 270.631 5.29376 270.631 4.13661C270.631 2.97946 263.741 2.06832 255.238 2.06832C251.397 2.03162 247.558 2.263 243.75 2.76078C243.75 2.03583 243.462 1.34058 242.949 0.827958C242.436 0.315341 241.741 0.0273541 241.016 0.0273541C240.291 0.0273541 239.595 0.315341 239.082 0.827958C238.57 1.34058 238.282 2.03583 238.282 2.76078C234.473 2.263 230.634 2.03162 226.794 2.06832C218.295 2.06832 211.4 2.97946 211.4 4.13661C211.4 5.29376 218.29 6.2049 226.794 6.2049C230.634 6.2416 234.473 6.01022 238.282 5.51243C238.281 5.84399 238.342 6.1728 238.459 6.4828C238.203 6.63994 237.99 6.85802 237.838 7.11759C237.687 7.37716 237.602 7.67018 237.591 7.97053C237.58 8.27089 237.644 8.56926 237.776 8.83906C237.909 9.10887 238.106 9.34173 238.35 9.51691C237.385 9.88045 236.555 10.5289 235.968 11.3761C235.381 12.2232 235.066 13.2289 235.064 14.2594V17.658C235.066 18.9961 235.595 20.2796 236.538 21.2292C237.481 22.1788 238.761 22.7177 240.1 22.7285H242.119C242.91 22.7285 243.69 22.543 244.397 22.187C245.104 21.831 245.717 21.3143 246.188 20.6784C247.027 21.4601 248.122 21.9088 249.268 21.9403L275.926 22.6875C276.777 24.0304 277.903 25.1778 279.23 26.0541C276.678 28.6463 266.726 40.1404 268.33 60.3951C268.33 60.3951 269.939 63.3791 274.072 60.3951C274.072 60.3951 271.429 37.8261 286.225 28.5325C286.476 29.2523 286.944 29.8763 287.566 30.3179C288.187 30.7596 288.93 30.9969 289.693 30.9971H291.584C289.444 31.8408 287.666 33.4045 286.556 35.4184C285.446 37.4324 285.074 39.7704 285.503 42.0295C285.933 44.2885 287.137 46.3268 288.909 47.7931C290.681 49.2594 292.909 50.0618 295.209 50.0618C297.509 50.0618 299.737 49.2594 301.509 47.7931C303.281 46.3268 304.485 44.2885 304.915 42.0295C305.344 39.7704 304.972 37.4324 303.862 35.4184C302.752 33.4045 300.974 31.8408 298.834 30.9971H300.725C301.488 30.9969 302.231 30.7596 302.852 30.3179C303.474 29.8763 303.942 29.2523 304.193 28.5325C318.989 37.8261 316.346 60.3951 316.346 60.3951C320.479 63.3791 322.088 60.3951 322.088 60.3951C323.911 37.1974 310.6 25.4892 310.6 25.4892H310.359C311.338 24.714 312.182 23.7809 312.856 22.7285L340.917 21.9449C342.124 21.9174 343.274 21.4282 344.13 20.5782C344.597 21.2505 345.219 21.7997 345.945 22.179C346.67 22.5582 347.476 22.7561 348.295 22.7558H350.314C350.98 22.7558 351.64 22.6245 352.256 22.3695C352.872 22.1144 353.432 21.7406 353.903 21.2694C354.375 20.7981 354.749 20.2386 355.004 19.6229C355.259 19.0072 355.39 18.3472 355.39 17.6807V14.2822C355.39 13.302 355.106 12.3429 354.572 11.5207C354.038 10.6986 353.278 10.0485 352.382 9.64902C352.694 9.47669 352.948 9.21696 353.114 8.90189C353.279 8.58682 353.349 8.23021 353.314 7.87605C353.279 7.5219 353.141 7.18571 352.917 6.90898C352.693 6.63225 352.393 6.42708 352.054 6.3188C352.131 6.06305 352.169 5.79752 352.168 5.53066C355.977 6.02845 359.816 6.25984 363.656 6.22312C372.155 6.22312 379.05 5.31198 379.05 4.15483C379.05 2.99768 372.169 2.06832 363.665 2.06832Z" fill="url(#paint0_linear)"/>
<path d="M295.211 48.9739C300.355 48.9739 304.526 44.8048 304.526 39.662C304.526 34.5192 300.355 30.3502 295.211 30.3502C290.067 30.3502 285.897 34.5192 285.897 39.662C285.897 44.8048 290.067 48.9739 295.211 48.9739Z" fill="#EBEBEB"/>
<path d="M295.211 45.9444C298.682 45.9444 301.495 43.1317 301.495 39.662C301.495 36.1924 298.682 33.3797 295.211 33.3797C291.741 33.3797 288.927 36.1924 288.927 39.662C288.927 43.1317 291.741 45.9444 295.211 45.9444Z" fill="#EBEBEB"/>
<path opacity="0.2" d="M295.211 45.9444C298.682 45.9444 301.495 43.1317 301.495 39.662C301.495 36.1924 298.682 33.3797 295.211 33.3797C291.741 33.3797 288.927 36.1924 288.927 39.662C288.927 43.1317 291.741 45.9444 295.211 45.9444Z" fill="#F5F5F5"/>
<path d="M295.211 43.7758C297.484 43.7758 299.326 41.934 299.326 39.662C299.326 37.39 297.484 35.5482 295.211 35.5482C292.939 35.5482 291.096 37.39 291.096 39.662C291.096 41.934 292.939 43.7758 295.211 43.7758Z" fill="#EBEBEB"/>
<path opacity="0.25" d="M295.211 43.7758C297.484 43.7758 299.326 41.934 299.326 39.662C299.326 37.39 297.484 35.5482 295.211 35.5482C292.939 35.5482 291.096 37.39 291.096 39.662C291.096 41.934 292.939 43.7758 295.211 43.7758Z" fill="black"/>
<path d="M280.693 25.799C280.693 25.799 268.129 36.8512 269.861 58.7186C269.861 58.7186 271.379 61.534 275.279 58.7186C275.279 58.7186 272.03 30.9925 293.694 25.7944L280.693 25.799Z" fill="#EBEBEB"/>
<path d="M309.725 25.799C309.725 25.799 322.293 36.8512 320.575 58.7186C320.575 58.7186 319.058 61.534 315.157 58.7186C315.157 58.7186 318.406 30.9925 296.742 25.7944L309.725 25.799Z" fill="#EBEBEB"/>
<path d="M302.953 6.95203H285.947C280.113 6.95203 275.384 11.68 275.384 17.5122C275.384 23.3444 280.113 28.0723 285.947 28.0723H302.953C308.787 28.0723 313.516 23.3444 313.516 17.5122C313.516 11.68 308.787 6.95203 302.953 6.95203Z" fill="#EBEBEB"/>
<path d="M281.632 23.2842L251.879 22.4506C250.718 22.4185 249.614 21.9345 248.804 21.1015C247.994 20.2686 247.541 19.1524 247.541 17.9905V16.8516C247.541 15.7034 247.984 14.5995 248.778 13.7696C249.571 12.9397 250.655 12.4477 251.802 12.3961L281.554 11.0613C282.156 11.0342 282.758 11.1294 283.322 11.3411C283.886 11.5528 284.402 11.8766 284.837 12.293C285.273 12.7094 285.62 13.2097 285.857 13.7638C286.094 14.3179 286.216 14.9142 286.216 15.5168V18.8288C286.215 19.4246 286.096 20.0143 285.864 20.563C285.631 21.1118 285.292 21.6085 284.864 22.0238C284.437 22.4391 283.931 22.7646 283.376 22.9811C282.82 23.1976 282.227 23.3007 281.632 23.2842Z" fill="#EBEBEB"/>
<path d="M308.572 23.2842L338.324 22.4506C339.486 22.4185 340.589 21.9345 341.4 21.1015C342.21 20.2686 342.663 19.1524 342.663 17.9905V16.8516C342.663 15.7034 342.22 14.5995 341.426 13.7696C340.632 12.9397 339.549 12.4477 338.402 12.3961L308.65 11.0613C308.048 11.0342 307.446 11.1294 306.882 11.3411C306.318 11.5528 305.802 11.8766 305.366 12.293C304.931 12.7094 304.584 13.2097 304.347 13.7638C304.11 14.3179 303.988 14.9142 303.988 15.5168V18.8288C303.988 19.4246 304.108 20.0143 304.34 20.563C304.572 21.1118 304.912 21.6085 305.339 22.0238C305.767 22.4391 306.273 22.7646 306.828 22.9811C307.383 23.1976 307.976 23.3007 308.572 23.2842Z" fill="#EBEBEB"/>
<path opacity="0.2" d="M281.632 23.2842L251.879 22.4506C250.718 22.4185 249.614 21.9345 248.804 21.1015C247.994 20.2686 247.541 19.1524 247.541 17.9905V16.8516C247.541 15.7034 247.984 14.5995 248.778 13.7696C249.571 12.9397 250.655 12.4477 251.802 12.3961L281.554 11.0613C282.156 11.0342 282.758 11.1294 283.322 11.3411C283.886 11.5528 284.402 11.8766 284.837 12.293C285.273 12.7094 285.62 13.2097 285.857 13.7638C286.094 14.3179 286.216 14.9142 286.216 15.5168V18.8288C286.215 19.4246 286.096 20.0143 285.864 20.563C285.631 21.1118 285.292 21.6085 284.864 22.0238C284.437 22.4391 283.931 22.7646 283.376 22.9811C282.82 23.1976 282.227 23.3007 281.632 23.2842Z" fill="#F5F5F5"/>
<path opacity="0.2" d="M308.572 23.2842L338.324 22.4506C339.486 22.4185 340.589 21.9345 341.4 21.1015C342.21 20.2686 342.663 19.1524 342.663 17.9905V16.8516C342.663 15.7034 342.22 14.5995 341.426 13.7696C340.632 12.9397 339.549 12.4477 338.402 12.3961L308.65 11.0613C308.048 11.0342 307.446 11.1294 306.882 11.3411C306.318 11.5528 305.802 11.8766 305.366 12.293C304.931 12.7094 304.584 13.2097 304.347 13.7638C304.11 14.3179 303.988 14.9142 303.988 15.5168V18.8288C303.988 19.4246 304.108 20.0143 304.34 20.563C304.572 21.1118 304.912 21.6085 305.339 22.0238C305.767 22.4391 306.273 22.7646 306.828 22.9811C307.383 23.1976 307.976 23.3007 308.572 23.2842Z" fill="#F5F5F5"/>
<path d="M244.839 10.4189H243.536C240.725 10.4189 238.446 12.6972 238.446 15.5077V18.109C238.446 20.9194 240.725 23.1977 243.536 23.1977H244.839C247.65 23.1977 249.929 20.9194 249.929 18.109V15.5077C249.929 12.6972 247.65 10.4189 244.839 10.4189Z" fill="#EBEBEB"/>
<path d="M346.887 10.4189H345.584C342.772 10.4189 340.493 12.6972 340.493 15.5077V18.109C340.493 20.9194 342.772 23.1977 345.584 23.1977H346.887C349.698 23.1977 351.977 20.9194 351.977 18.109V15.5077C351.977 12.6972 349.698 10.4189 346.887 10.4189Z" fill="#EBEBEB"/>
<path d="M246.028 7.60345H242.561C241.604 7.60345 240.829 8.37853 240.829 9.33462V9.33918C240.829 10.2953 241.604 11.0704 242.561 11.0704H246.028C246.985 11.0704 247.76 10.2953 247.76 9.33918V9.33462C247.76 8.37853 246.985 7.60345 246.028 7.60345Z" fill="#EBEBEB"/>
<path d="M246.68 4.35528C246.68 2.91861 245.516 1.75397 244.08 1.75397C242.645 1.75397 241.481 2.91861 241.481 4.35528V6.95204C241.481 8.3887 242.645 9.55335 244.08 9.55335C245.516 9.55335 246.68 8.3887 246.68 6.95204V4.35528Z" fill="#EBEBEB"/>
<path d="M230.644 7.60349C238.662 7.60349 245.163 6.73051 245.163 5.65364C245.163 4.57677 238.662 3.7038 230.644 3.7038C222.626 3.7038 216.126 4.57677 216.126 5.65364C216.126 6.73051 222.626 7.60349 230.644 7.60349Z" fill="#EBEBEB"/>
<path d="M257.512 7.60349C265.53 7.60349 272.03 6.73051 272.03 5.65364C272.03 4.57677 265.53 3.7038 257.512 3.7038C249.494 3.7038 242.993 4.57677 242.993 5.65364C242.993 6.73051 249.494 7.60349 257.512 7.60349Z" fill="#EBEBEB"/>
<path d="M348.29 7.60345H344.823C343.866 7.60345 343.091 8.37853 343.091 9.33462V9.33918C343.091 10.2953 343.866 11.0704 344.823 11.0704H348.29C349.247 11.0704 350.022 10.2953 350.022 9.33918V9.33462C350.022 8.37853 349.247 7.60345 348.29 7.60345Z" fill="#EBEBEB"/>
<path d="M348.942 4.35528C348.942 2.91861 347.778 1.75397 346.342 1.75397C344.906 1.75397 343.743 2.91861 343.743 4.35528V6.95204C343.743 8.3887 344.906 9.55335 346.342 9.55335C347.778 9.55335 348.942 8.3887 348.942 6.95204V4.35528Z" fill="#EBEBEB"/>
<path d="M332.911 7.60349C340.929 7.60349 347.429 6.73051 347.429 5.65364C347.429 4.57677 340.929 3.7038 332.911 3.7038C324.892 3.7038 318.392 4.57677 318.392 5.65364C318.392 6.73051 324.892 7.60349 332.911 7.60349Z" fill="#EBEBEB"/>
<path d="M359.774 7.60349C367.792 7.60349 374.292 6.73051 374.292 5.65364C374.292 4.57677 367.792 3.7038 359.774 3.7038C351.756 3.7038 345.255 4.57677 345.255 5.65364C345.255 6.73051 351.756 7.60349 359.774 7.60349Z" fill="#EBEBEB"/>
<path opacity="0.2" d="M230.644 7.60349C238.662 7.60349 245.163 6.73051 245.163 5.65364C245.163 4.57677 238.662 3.7038 230.644 3.7038C222.626 3.7038 216.126 4.57677 216.126 5.65364C216.126 6.73051 222.626 7.60349 230.644 7.60349Z" fill="#F5F5F5"/>
<path opacity="0.2" d="M257.512 7.60349C265.53 7.60349 272.03 6.73051 272.03 5.65364C272.03 4.57677 265.53 3.7038 257.512 3.7038C249.494 3.7038 242.993 4.57677 242.993 5.65364C242.993 6.73051 249.494 7.60349 257.512 7.60349Z" fill="#F5F5F5"/>
<path opacity="0.2" d="M332.911 7.60349C340.929 7.60349 347.429 6.73051 347.429 5.65364C347.429 4.57677 340.929 3.7038 332.911 3.7038C324.892 3.7038 318.392 4.57677 318.392 5.65364C318.392 6.73051 324.892 7.60349 332.911 7.60349Z" fill="#F5F5F5"/>
<path opacity="0.2" d="M359.774 7.60349C367.792 7.60349 374.292 6.73051 374.292 5.65364C374.292 4.57677 367.792 3.7038 359.774 3.7038C351.756 3.7038 345.255 4.57677 345.255 5.65364C345.255 6.73051 351.756 7.60349 359.774 7.60349Z" fill="#F5F5F5"/>
<path d="M300.411 24.0633H290.012C288.097 24.0633 286.544 25.6145 286.544 27.5279C286.544 29.4414 288.097 30.9925 290.012 30.9925H300.411C302.326 30.9925 303.879 29.4414 303.879 27.5279C303.879 25.6145 302.326 24.0633 300.411 24.0633Z" fill="#EBEBEB"/>
<path opacity="0.2" d="M300.411 24.0633H290.012C288.097 24.0633 286.544 25.6145 286.544 27.5279C286.544 29.4414 288.097 30.9925 290.012 30.9925H300.411C302.326 30.9925 303.879 29.4414 303.879 27.5279C303.879 25.6145 302.326 24.0633 300.411 24.0633Z" fill="#F5F5F5"/>
<path d="M310.946 60.0671H272.345V98.6585H310.946H320.808V60.0671H310.946Z" fill="#67647E"/>
<path opacity="0.25" d="M320.812 60.0671H310.946V98.6585H320.812V60.0671Z" fill="black"/>
<path opacity="0.25" d="M284.352 66.4998H277.061V70.3584H284.352V66.4998Z" fill="black"/>
<path d="M293.439 55.5296C295.079 57.853 294.806 60.8461 294.806 60.8461C294.806 60.8461 291.898 60.0762 290.249 57.7528C288.599 55.4294 287.97 53.0513 288.882 52.4363C289.793 51.8213 291.798 53.2017 293.439 55.5296Z" fill="#67647E"/>
<path d="M296.214 55.5296C294.573 57.853 294.847 60.8461 294.847 60.8461C294.847 60.8461 297.754 60.0762 299.404 57.7528C301.053 55.4294 301.682 53.0513 300.771 52.4363C299.859 51.8213 297.854 53.2017 296.214 55.5296Z" fill="#67647E"/>
<path d="M92.9479 161.035L92.8975 161.191C92.9189 161.141 92.9358 161.089 92.9479 161.035Z" fill="url(#paint1_linear)"/>
<path d="M239.64 287.051C239.672 287.005 239.703 286.964 239.726 286.919L239.776 286.823C239.799 286.778 239.826 286.737 239.845 286.691L239.881 286.595C239.881 286.55 239.918 286.504 239.931 286.459C239.945 286.413 239.931 286.399 239.954 286.368C239.977 286.336 239.977 286.276 239.986 286.226C239.995 286.176 239.986 286.172 239.986 286.14C239.986 286.108 239.986 286.044 239.986 285.994C239.986 285.944 239.986 285.944 239.986 285.917C239.986 285.889 239.986 285.816 239.986 285.766C239.986 285.716 239.986 285.721 239.986 285.698C239.986 285.675 239.986 285.593 239.986 285.543V285.484C239.986 285.429 239.986 285.374 239.949 285.32V285.27C239.949 285.21 239.913 285.156 239.895 285.097V285.06C239.874 284.999 239.849 284.94 239.822 284.882V284.855C239.795 284.791 239.764 284.729 239.731 284.668L239.621 284.472C239.202 283.822 238.673 283.249 238.058 282.778C233.36 284.714 227.577 282.5 227.577 282.5C227.577 282.5 219.831 278.632 220.391 279.734C220.578 280.108 220.482 280.851 220.273 281.68C216.563 280.901 214.517 278.91 213.405 277.124L217.63 272.568C217.63 272.568 200.491 262.897 198.559 257.922C196.627 252.947 187.226 238.856 187.226 238.856C187.226 238.856 184.186 227.804 178.659 225.316C178.659 225.316 167.636 212.15 161.197 200.861C163.475 195.171 166.665 186.283 165.945 182.488C165.034 177.759 165.977 168.821 166.355 165.659C169.413 168.211 181.849 178.311 186.674 178.069C188.411 177.983 190.279 177.053 192.033 175.814C196.208 173.172 199.944 168.397 199.944 168.397C199.379 168.452 198.919 167.942 198.545 167.076C203.161 162.065 212.722 151.751 213.765 151.541C215.132 151.263 222.61 138.28 218.464 135.514C214.317 132.749 206.857 142.699 206.579 144.626C206.392 145.938 200.61 151.696 196.909 155.268C196.909 155.177 196.909 155.127 196.909 155.127L196.362 155.4C196.362 155.227 196.362 155.127 196.362 155.127L186.816 159.896L178.673 148.771C178.673 148.771 176.462 136.89 170.926 134.954C165.389 133.018 161.302 127.054 161.302 127.054C161.25 127.248 161.209 127.444 161.178 127.642C160.901 127.273 160.75 127.054 160.75 127.054C160.75 127.054 160.75 127.104 160.714 127.186C160.296 125.485 160.19 123.723 160.399 121.984L160.477 121.938C160.509 121.724 160.545 121.519 160.582 121.323C163.408 119.609 165.527 116.939 166.555 113.798C167.582 110.656 167.45 107.251 166.182 104.198C167.59 103.214 169.632 102.604 171.368 101.857C173.823 100.855 175.973 99.2299 177.606 97.1415C176.655 96.9034 175.658 96.9239 174.717 97.2007C174.599 95.9205 176.084 94.4673 174.927 93.4923C174.216 92.8864 172.89 92.9411 171.878 93.2418C170.867 93.5425 169.941 94.0345 168.866 94.1529C166.993 94.3807 165.22 93.4741 163.885 92.4947C162.55 91.5152 161.292 90.3671 159.506 89.9025C155.956 88.9913 152.438 91.0915 148.875 91.9844C143.151 93.4149 139.761 94.9456 139.483 98.5902C138.746 99.0851 138.068 99.6612 137.46 100.308C136.23 101.377 135.379 102.815 135.035 104.408C134.552 106.886 135.555 109.419 136.767 111.624C137.455 112.886 140.763 119.423 143.01 118.562C143.632 119.277 144.325 119.925 145.079 120.499C145.006 121.25 144.901 122.011 144.783 122.776C144.276 123.053 143.726 123.243 143.156 123.337C141.919 123.566 140.663 123.676 139.405 123.665C137.439 123.65 135.476 123.53 133.522 123.305C131.624 123.086 129.715 122.976 127.804 122.977C126.851 122.974 125.899 123.019 124.951 123.114H124.805L124.24 123.182H124.153L123.538 123.282H123.47L122.969 123.382L122.855 123.405L122.344 123.528L121.843 123.669L121.761 123.692L121.369 123.815L121.283 123.843C120.986 123.943 120.708 124.052 120.444 124.161L120.362 124.198L120.034 124.339L119.975 124.366L119.606 124.54H119.574L119.255 124.699L119.177 124.74L118.867 124.899L118.476 125.104L118.239 125.227L118.129 125.287L117.806 125.451C115.04 126.817 88.2312 134.015 83.533 148.384L83.6287 148.471L83.7335 148.566C83.6561 148.776 83.5786 148.986 83.5102 149.195C83.5102 149.195 83.9659 149.605 84.6768 150.27C83.4145 155.764 80.0333 169.805 78.2561 170.47C76.046 171.299 73.5579 188.156 79.3634 187.604C85.169 187.053 85.169 173.513 85.169 173.513C85.169 173.513 88.9968 163.254 91.8175 158.047C92.3038 158.695 92.6781 159.421 92.9248 160.193V160.252V160.197C92.9932 160.434 93.0041 160.684 92.9567 160.926C93.2302 160.124 94.6474 156.443 97.6048 156.935C100.763 157.464 112.693 145.714 113.823 144.589C113.796 144.894 113.759 145.277 113.723 145.719C113.723 145.979 113.677 146.257 113.654 146.557V146.653V146.881V147.031V147.263V147.427V147.66V147.869L113.632 148.211V148.489V148.685V148.963V149.15V149.441V149.637V149.956V150.138L113.6 150.639V150.708L113.572 151.163V151.323V151.705V151.887V152.279V152.443L113.549 152.899V152.99C113.549 153.187 113.54 153.386 113.522 153.587V153.623C113.522 153.805 113.515 153.988 113.499 154.17V154.329V154.785V154.967C113.499 155.119 113.499 155.271 113.499 155.423V155.578C113.499 155.994 113.486 156.414 113.458 156.84V156.931C113.458 157.11 113.458 157.289 113.458 157.468V157.632C113.458 157.793 113.458 157.954 113.458 158.115V158.284C113.458 158.46 113.458 158.638 113.458 158.817V158.922C113.458 159.356 113.458 159.793 113.458 160.234C113.458 160.279 113.458 160.325 113.458 160.375C113.458 160.545 113.458 160.715 113.458 160.885C113.458 160.943 113.458 161.002 113.458 161.063C113.458 161.224 113.458 161.386 113.458 161.55C113.458 161.596 113.458 161.641 113.458 161.687C113.458 167.714 113.827 173.851 115.181 177.349C115.899 179.23 116.282 181.222 116.311 183.235C116.183 186.875 115.23 190.438 113.522 193.654L113.846 193.554L113.786 193.659L113.964 193.604C113.691 194.174 113.508 194.488 113.508 194.488C113.508 194.488 113.909 194.36 114.625 194.151C113.604 197.75 112.925 203.29 114.889 210.242C114.889 210.242 115.997 216.319 115.167 218.533C114.338 220.747 113.508 238.428 113.508 238.428C113.508 238.428 111.85 240.637 108.81 239.257C105.771 237.877 68.4587 233.18 68.4587 233.18C68.4587 233.18 68.3721 233.33 68.2263 233.599C67.078 233.239 65.4238 232.688 64.2162 232.182C64.6719 231.553 65.0775 231.193 65.4192 231.243C65.4192 231.243 63.4279 230.282 61.2588 229.521L60.8623 229.385L60.475 229.257H60.4476L60.0785 229.143H60.0375L59.7003 229.048H59.6319L59.313 228.966H59.2309L58.9256 228.897H58.839L58.5656 228.843H58.4608L58.2147 228.802H58.0963L57.873 228.774H57.7499H57.5403H57.1165H56.9479H56.8385L56.6882 228.806H56.5879L56.4603 228.852L56.3692 228.884C56.3283 228.904 56.2887 228.927 56.2507 228.952L56.1823 228.993C56.1267 229.034 56.0762 229.081 56.032 229.134C54.6649 230.792 46.9181 262.569 50.5044 264.778L50.8143 264.965L50.9419 265.038L51.1059 265.129L51.2654 265.211L51.3793 265.27L51.5525 265.352L51.6391 265.393L51.8168 265.471L51.8806 265.498L52.0629 265.566H52.1039L52.2907 265.625H52.3135C54.3186 266.168 54.9839 264.313 57.4127 260.341C59.7914 256.45 62.8491 251.544 65.5195 249.726C65.5787 249.858 65.638 249.99 65.7018 250.118C65.7018 250.118 93.6175 253.156 103.843 256.496C114.069 259.835 122.071 264.24 128.719 256.496C134.671 249.557 140.618 227.057 141.78 222.496L141.953 221.813V221.754V221.695L164.063 238.551L173.737 249.881C173.737 249.881 187.281 268.947 189.769 269.224C192.257 269.502 203.462 287.748 203.462 287.748L203.881 287.292C203.982 287.798 204.059 288.263 204.118 288.659C203.207 290.85 204.05 293.493 204.879 295.233L204.916 295.306L205.012 295.497L205.062 295.597L205.153 295.775L205.198 295.862L205.294 296.044L205.344 296.13L205.417 296.263L205.454 296.331L205.549 296.495L205.59 296.563L205.65 296.659L205.681 296.714L205.754 296.832L205.782 296.878L205.827 296.946V296.978L205.873 297.051L205.9 297.087C205.9 297.087 234.923 290.181 238.514 287.976C238.628 287.907 238.733 287.835 238.833 287.762L238.924 287.689L239.106 287.543L239.198 287.456L239.339 287.324L239.421 287.229L239.53 287.101L239.64 287.051Z" fill="url(#paint2_linear)"/>
<path d="M71.0835 233.084C71.0835 233.084 64.6218 231.198 64.3529 230.392C64.084 229.585 58.6978 245.193 58.6978 245.193L64.084 248.961C64.084 248.961 69.7392 245.731 72.7012 246.268C75.6632 246.806 71.0835 233.084 71.0835 233.084Z" fill="#4C4C56"/>
<path d="M210.27 271.571C210.27 271.571 211.077 278.86 219.963 279.643C228.849 280.427 214.039 286.933 214.039 286.933L202.733 287.739C202.733 287.739 202.464 283.183 200.578 279.666C198.691 276.149 210.27 271.571 210.27 271.571Z" fill="#4C4C56"/>
<path d="M116.853 189.75C116.853 189.75 111.74 197.554 115.24 209.936C115.24 209.936 116.316 215.859 115.509 218.009C114.702 220.159 113.896 237.389 113.896 237.389C113.896 237.389 112.283 239.544 109.339 238.195C106.395 236.847 70.0354 232.273 70.0354 232.273C70.0354 232.273 64.1114 242.501 67.3423 248.674C67.3423 248.674 94.5334 251.635 104.495 254.865C114.456 258.095 122.267 262.4 128.724 254.865C135.181 247.33 141.647 220.952 141.647 220.952L163.184 237.353L172.607 248.387C172.607 248.387 185.8 266.956 188.224 267.224C190.648 267.493 201.954 285.256 201.954 285.256L215.684 270.454C215.684 270.454 198.964 261.074 197.082 256.227C195.2 251.38 186.046 237.658 186.046 237.658C186.046 237.658 183.084 226.893 177.702 224.469C177.702 224.469 158.317 201.322 156.435 190.556C154.553 179.791 124.122 184.912 124.122 184.912L116.853 189.75Z" fill="#5F5D7E"/>
<path d="M217.001 282.86C217.001 282.86 218.887 278.555 218.368 277.475C217.848 276.395 225.335 280.181 225.335 280.181C225.335 280.181 230.991 282.336 235.566 280.45C235.566 280.45 239.603 283.411 236.103 285.561C232.604 287.712 204.337 294.445 204.337 294.445C204.337 294.445 200.031 288.254 203.531 284.755L217.001 282.86Z" fill="#986365"/>
<path opacity="0.1" d="M197.082 256.227C195.196 251.384 186.046 237.658 186.046 237.658C186.046 237.658 183.084 226.893 177.702 224.469C177.702 224.469 158.317 201.322 156.435 190.556C156.047 188.338 154.443 186.793 152.147 185.741L148.392 197.016L143.265 212.415C142.276 215.385 141.338 218.697 141.442 221.768C141.575 221.257 141.643 220.975 141.643 220.975L163.179 237.375L172.603 248.409C172.603 248.409 185.795 266.979 188.219 267.247C190.644 267.516 201.949 285.279 201.949 285.279L215.679 270.477C215.679 270.477 198.964 261.074 197.082 256.227Z" fill="black"/>
<path d="M160.732 120.581C160.732 120.581 158.453 126.366 161.406 131.751C164.359 137.136 160.194 146.689 157.501 147.241C154.808 147.792 144.04 140.781 143.233 136.207C142.427 131.633 146.733 122.212 144.6 116.02L160.732 120.581Z" fill="#FDC2CC"/>
<path opacity="0.1" d="M146.195 130.539C146.195 130.539 154.539 147.496 163.694 135.382C163.694 135.382 172.849 153.951 169.887 156.912C167.78 158.961 165.531 160.858 163.156 162.589L158.312 196.502C158.312 196.502 130.852 187.08 119.278 188.698L137.05 146.175L146.195 130.539Z" fill="black"/>
<path d="M146.195 129.733C146.195 129.733 154.539 146.689 163.694 134.576C163.694 134.576 172.849 153.145 169.887 156.106C167.78 158.147 165.53 160.037 163.156 161.76L158.312 195.672C158.312 195.672 130.852 186.251 119.278 187.868L137.05 145.345L146.195 129.733Z" fill="#D39999"/>
<path d="M86.7001 149.377C86.7001 149.377 82.1431 170.37 79.9695 171.176C77.7958 171.983 75.4126 188.402 81.0449 187.864C86.6773 187.326 86.7001 174.138 86.7001 174.138C86.7001 174.138 92.6241 158.256 95.0438 156.37C97.4635 154.484 86.7001 149.377 86.7001 149.377Z" fill="#FDC2CC"/>
<path d="M192.503 159.067C192.503 159.067 204.62 147.765 204.888 145.878C205.157 143.992 212.426 134.307 216.463 136.995C220.501 139.683 213.232 152.334 211.906 152.607C210.58 152.881 194.676 170.375 194.676 170.375L192.503 159.067Z" fill="#FDC2CC"/>
<path opacity="0.1" d="M144.983 125.291C144.983 125.291 143.502 127.041 133.541 125.965C123.579 124.89 121.155 126.772 118.466 128.12C115.778 129.469 89.662 136.462 85.0823 150.443C85.0823 150.443 95.3126 159.596 94.2372 162.015C94.2372 162.015 95.6043 157.459 98.7941 157.978C101.984 158.498 114.68 145.865 114.68 145.865C114.68 145.865 112.255 169.555 115.486 177.891C118.717 186.228 113.873 194.579 113.873 194.579C113.873 194.579 136.758 187.29 146.988 190.811C146.988 190.811 152.912 164.165 147.795 153.4C142.677 142.635 149.95 132.407 149.95 132.407L144.983 125.291Z" fill="black"/>
<path opacity="0.1" d="M145.252 124.485C145.252 124.485 143.771 126.234 133.81 125.159C123.848 124.084 121.424 125.965 118.735 127.314C116.047 128.662 89.9309 135.655 85.3512 149.637C85.3512 149.637 95.5815 158.789 94.5061 161.208C94.5061 161.208 95.8732 156.653 99.063 157.172C102.253 157.691 114.948 145.058 114.948 145.058C114.948 145.058 112.524 168.748 115.755 177.085C118.986 185.422 114.146 193.786 114.146 193.786C114.146 193.786 137.031 186.497 147.262 190.019C147.262 190.019 153.186 163.372 148.068 152.607C142.951 141.842 150.233 131.61 150.233 131.61L145.252 124.485Z" fill="black"/>
<path d="M144.983 124.485C144.983 124.485 143.502 126.234 133.541 125.159C123.579 124.084 121.155 125.965 118.466 127.314C115.778 128.662 89.662 135.655 85.0823 149.637C85.0823 149.637 95.3126 158.789 94.2372 161.208C94.2372 161.208 95.6043 156.653 98.7941 157.172C101.984 157.691 114.68 145.058 114.68 145.058C114.68 145.058 112.255 168.748 115.486 177.085C118.717 185.422 113.873 193.773 113.873 193.773C113.873 193.773 136.758 186.484 146.988 190.005C146.988 190.005 152.912 163.359 147.795 152.594C142.677 141.828 149.964 131.61 149.964 131.61L144.983 124.485Z" fill="#EC7580"/>
<path opacity="0.1" d="M160.062 129.332C160.062 129.332 163.967 135.118 169.349 137.004C174.731 138.89 176.886 150.462 176.886 150.462L184.961 161.495L194.654 156.666C194.654 156.666 194.922 169.855 197.616 169.586C197.616 169.586 190.885 178.201 185.499 178.47C180.112 178.739 165.043 165.778 165.043 165.778C165.043 165.778 163.43 177.623 164.505 183.272C165.58 188.921 157.774 206.151 157.774 206.151L147.006 203.996C147.006 203.996 152.662 182.465 159.661 178.967C159.661 178.967 159.661 164.434 158.586 160.935C157.51 157.436 165.585 144.248 164.51 141.555C163.903 140.047 161.534 136.817 160.335 133.883C159.785 132.429 159.69 130.842 160.062 129.332Z" fill="black"/>
<path opacity="0.1" d="M160.869 128.79C160.869 128.79 164.774 134.576 170.156 136.462C175.537 138.348 177.693 149.919 177.693 149.919L185.768 160.953L195.46 156.111C195.46 156.111 195.729 169.299 198.422 169.031C198.422 169.031 191.692 177.646 186.305 177.914C180.919 178.183 165.845 165.263 165.845 165.263C165.845 165.263 164.232 177.108 165.307 182.757C166.382 188.406 158.576 205.636 158.576 205.636L147.808 203.481C147.808 203.481 153.464 181.951 160.463 178.452C160.463 178.452 160.463 163.919 159.388 160.42C158.312 156.922 166.387 143.733 165.312 141.04C164.705 139.532 162.336 136.302 161.137 133.369C160.583 131.905 160.489 130.308 160.869 128.79Z" fill="black"/>
<path d="M160.331 128.79C160.331 128.79 164.236 134.576 169.618 136.462C175 138.348 177.155 149.919 177.155 149.919L185.234 160.953L194.927 156.111C194.927 156.111 195.196 169.299 197.889 169.031C197.889 169.031 191.158 177.646 185.772 177.914C180.386 178.183 165.312 165.263 165.312 165.263C165.312 165.263 163.698 177.108 164.774 182.757C165.849 188.406 158.043 205.636 158.043 205.636L147.275 203.481C147.275 203.481 152.93 181.951 159.93 178.452C159.93 178.452 159.93 163.919 158.854 160.42C157.779 156.922 165.854 143.733 164.778 141.04C164.172 139.532 161.803 136.302 160.604 133.369C160.049 131.906 159.953 130.308 160.331 128.79Z" fill="#EC7580"/>
<path opacity="0.05" d="M160.787 129.246C160.787 129.246 164.692 135.031 170.074 136.917C175.455 138.803 177.611 150.375 177.611 150.375L185.69 161.409L195.383 156.566C195.383 156.566 195.652 169.755 198.345 169.486C198.345 169.486 191.614 178.101 186.228 178.37C180.842 178.639 165.767 165.719 165.767 165.719C165.767 165.719 164.154 177.563 165.23 183.213C166.305 188.862 158.499 206.091 158.499 206.091L147.731 203.937C147.731 203.937 153.386 182.406 160.386 178.907C160.386 178.907 160.386 164.375 159.31 160.876C158.235 157.377 166.31 144.188 165.234 141.496C164.628 139.988 162.258 136.758 161.06 133.824C160.504 132.361 160.409 130.764 160.787 129.246Z" fill="black"/>
<path d="M67.0461 230.391C67.0461 230.391 59.24 226.624 57.8912 228.237C56.5423 229.849 49.0052 260.801 52.5049 262.956C56.0046 265.111 56.2735 263.493 59.2355 258.651C62.1975 253.808 66.2349 247.348 69.1969 247.617C69.1969 247.617 60.5798 244.655 60.8532 243.58C61.1266 242.505 65.164 230.123 67.0461 230.391Z" fill="#986365"/>
<path opacity="0.1" d="M145.07 122.954C147.203 124.57 149.77 125.513 152.442 125.664C155.114 125.814 157.77 125.164 160.071 123.797C160.201 122.881 160.424 121.98 160.736 121.109L144.582 116.553C145.247 118.453 145.293 120.676 145.07 122.954Z" fill="black"/>
<path d="M155.059 112.426C158.339 112.708 162.35 112.093 163.557 109.861C163.908 109.219 163.981 108.494 164.336 107.87C165.366 106.021 168.31 105.264 170.675 104.226C173.066 103.25 175.16 101.667 176.749 99.6335C175.822 99.4018 174.85 99.4222 173.933 99.6927C173.819 98.449 175.255 97.0276 174.138 96.08C173.446 95.4923 172.156 95.547 171.167 95.8386C170.178 96.1301 169.285 96.6085 168.233 96.7497C166.41 96.9729 164.683 96.0891 163.379 95.1324C162.076 94.1757 160.855 93.0596 159.114 92.6086C155.66 91.6974 152.229 93.7703 148.761 94.6358C141.647 96.4171 138.198 98.3488 140.13 104.531C141.561 109.109 149.089 111.911 155.059 112.426Z" fill="#865A61"/>
<path d="M153.195 125.155C160.629 125.155 166.656 119.129 166.656 111.697C166.656 104.265 160.629 98.2394 153.195 98.2394C145.76 98.2394 139.734 104.265 139.734 111.697C139.734 119.129 145.76 125.155 153.195 125.155Z" fill="#FDC2CC"/>
<path opacity="0.1" d="M142.732 109.647C143.384 107.005 145.266 104.54 147.886 103.806C150.114 103.182 152.484 103.861 154.662 104.649C156.84 105.437 159.059 106.358 161.37 106.221C163.68 106.084 166.104 104.49 166.278 102.185C166.32 101.828 166.261 101.467 166.109 101.141C165.874 100.759 165.542 100.445 165.148 100.23C161.762 98.0708 157.911 96.3716 153.896 96.4353C150.593 96.49 147.435 97.7291 144.363 98.9501C140.49 100.49 136.083 102.645 135.286 106.736C134.83 109.15 135.792 111.606 136.972 113.765C137.656 115.014 140.964 121.565 143.151 120.485C144.035 120.066 142.313 111.342 142.732 109.647Z" fill="black"/>
<path d="M143.27 109.109C143.921 106.467 145.803 104.002 148.424 103.269C150.652 102.645 153.022 103.324 155.2 104.112C157.378 104.9 159.597 105.82 161.908 105.683C164.218 105.547 166.642 103.952 166.815 101.647C166.857 101.29 166.799 100.929 166.647 100.604C166.412 100.221 166.08 99.907 165.685 99.6927C162.299 97.5332 158.449 95.834 154.434 95.8977C151.13 95.9524 147.972 97.1916 144.901 98.4125C141.028 99.9523 136.621 102.107 135.824 106.198C135.368 108.613 136.33 111.068 137.51 113.228C138.193 114.476 141.502 121.027 143.689 119.947C144.573 119.528 142.855 110.804 143.27 109.109Z" fill="#865A61"/>
<path opacity="0.5" d="M53.316 263.229C49.8163 261.074 57.3535 230.123 58.7023 228.51C59.2902 227.804 61.122 228.127 62.9949 228.72C60.8714 227.977 58.5702 227.43 57.8957 228.264C56.5287 229.877 49.0097 260.828 52.5095 262.983C53.1045 263.388 53.764 263.688 54.4598 263.871C54.0647 263.683 53.6826 263.468 53.316 263.229Z" fill="white"/>
<path opacity="0.5" d="M237.097 282.104C237.461 283.015 237.352 284.103 235.844 285.028C232.344 287.183 204.077 293.912 204.077 293.912C203.796 293.491 203.539 293.054 203.307 292.604C203.608 293.244 203.955 293.861 204.346 294.449C204.346 294.449 232.599 287.721 236.113 285.566C237.922 284.454 237.717 283.124 237.097 282.104Z" fill="white"/>
<g opacity="0.05">
<path opacity="0.05" d="M95.6772 158.525C93.4397 154.926 87.2605 149.377 87.2605 149.377C91.8175 135.382 117.951 128.385 120.645 127.054C122.13 126.312 123.534 125.405 126.168 124.922C122.066 125.223 120.339 126.398 118.494 127.323C115.801 128.69 89.6894 135.665 85.1097 149.646C85.1097 149.646 94.9435 158.443 94.3101 161.067C94.6161 160.148 95.0786 159.288 95.6772 158.525Z" fill="black"/>
<path opacity="0.05" d="M94.2876 161.072L94.2372 161.223C94.2585 161.174 94.2754 161.124 94.2876 161.072Z" fill="black"/>
<path opacity="0.05" d="M145.293 124.927L144.983 124.471C144.983 124.471 144.641 124.872 143.192 125.173C143.897 125.138 144.599 125.056 145.293 124.927Z" fill="black"/>
<path opacity="0.05" d="M99.1086 157.199C99.5158 157.161 99.9134 157.053 100.284 156.881C99.8743 156.903 99.4737 157.012 99.1086 157.199Z" fill="black"/>
<path opacity="0.05" d="M134.133 189.413C138.95 188.884 143.653 188.875 147.002 190.019C147.002 190.019 147.066 189.736 147.17 189.231C143.498 188.515 138.781 188.766 134.133 189.413Z" fill="black"/>
<path opacity="0.05" d="M116.279 193.08C117.19 191.258 120.458 184.051 117.646 176.83C114.415 168.489 116.84 144.803 116.84 144.803C116.84 144.803 115.928 145.714 114.506 147.081C114.01 152.954 112.834 170.242 115.495 177.117C118.726 185.459 113.882 193.805 113.882 193.805C113.882 193.805 114.78 193.504 116.279 193.08Z" fill="black"/>
</g>
<path opacity="0.1" d="M357.523 280.281C354.278 281.953 350.879 283.397 347.525 284.837C335.134 290.067 322.557 295.342 309.247 297.137C284.266 300.504 258.464 291.388 233.907 297.06C213.332 301.807 196.317 316.353 176.216 322.832C166.87 325.843 157.146 327.023 147.334 327.023H146.045C144.83 327.008 143.624 326.977 142.427 326.932C132.479 326.558 122.49 325.087 112.738 323.205C81.9472 317.283 50.6092 306.426 27.0681 286.44C95.6179 273.899 236.814 254.683 357.523 280.281Z" fill="#252223"/>
<path d="M284.794 202.096C284.794 202.096 293.644 210.943 288.649 224.073C283.655 237.202 297.216 259.038 297.216 259.038L296.802 258.969C278.624 255.78 269.592 234.979 279.699 219.54C283.454 213.795 286.539 207.062 284.794 202.096Z" fill="#EBEBEB"/>
<path d="M284.794 202.096C284.794 202.096 289.807 212.943 284.794 221.79C279.782 230.638 283.937 255.471 297.212 259.038" stroke="#535461" stroke-miterlimit="10"/>
<path d="M269.032 237.881C269.032 237.881 279.13 236.273 280.05 245.321C280.971 254.368 299.472 255.621 299.472 255.621L299.126 255.853C283.851 265.876 269.251 262.231 271.451 248.929C272.272 243.981 272.199 239.011 269.032 237.881Z" fill="#EBEBEB"/>
<path opacity="0.2" d="M269.032 237.881C269.032 237.881 279.13 236.273 280.05 245.321C280.971 254.368 299.472 255.621 299.472 255.621L299.126 255.853C283.851 265.876 269.251 262.231 271.451 248.929C272.272 243.981 272.199 239.011 269.032 237.881Z" fill="#F5F5F5"/>
<path d="M269.032 237.881C269.032 237.881 276.87 239.603 276.227 246.728C275.585 253.853 287.87 262.395 299.467 255.626" stroke="#535461" stroke-miterlimit="10"/>
<path d="M307.633 257.348C307.633 257.348 301.281 256.077 299.59 254.386C297.9 252.696 290.276 249.731 289.429 251.849C288.581 253.967 277.995 261.161 285.195 262.432C292.395 263.703 302.133 264.127 304.248 263.279C306.362 262.432 307.633 257.348 307.633 257.348Z" fill="#A8A8A8"/>
<path opacity="0.2" d="M285.191 261.639C292.391 262.91 302.129 263.334 304.243 262.487C305.856 261.84 306.977 258.746 307.433 257.302L307.643 257.348C307.643 257.348 306.371 262.427 304.257 263.27C302.142 264.113 292.409 263.694 285.204 262.423C283.126 262.058 282.534 261.197 282.757 260.104C282.921 260.819 283.664 261.366 285.191 261.639Z" fill="black"/>
<path d="M422.769 268.281C422.769 268.281 428.788 247.84 421.639 232.797C418.599 226.506 417.683 219.398 419.028 212.542C419.69 209.292 420.65 206.11 421.894 203.034" stroke="#535461" stroke-width="2" stroke-miterlimit="10"/>
<path d="M417.446 193.513C417.446 196.019 422.003 203.28 422.003 203.28C422.003 203.28 426.56 196.014 426.56 193.513C426.453 192.385 425.928 191.337 425.089 190.574C424.251 189.812 423.157 189.389 422.024 189.389C420.89 189.389 419.797 189.812 418.958 190.574C418.119 191.337 417.595 192.385 417.487 193.513H417.446Z" fill="#EBEBEB"/>
<path d="M409.946 207.39C411.313 209.494 419.059 213.125 419.059 213.125C419.059 213.125 418.918 204.561 417.556 202.46C416.853 201.568 415.843 200.969 414.722 200.782C413.601 200.596 412.451 200.834 411.497 201.451C410.544 202.068 409.855 203.02 409.566 204.118C409.277 205.217 409.409 206.384 409.936 207.39H409.946Z" fill="#EBEBEB"/>
<path d="M410.274 231.102C412.511 232.232 421.042 231.453 421.042 231.453C421.042 231.453 416.594 224.132 414.357 223.002C413.82 222.671 413.22 222.454 412.595 222.366C411.97 222.279 411.334 222.322 410.727 222.493C410.119 222.663 409.554 222.959 409.067 223.359C408.58 223.76 408.181 224.258 407.896 224.82C407.611 225.383 407.446 225.999 407.411 226.629C407.377 227.259 407.474 227.889 407.695 228.479C407.917 229.07 408.259 229.608 408.7 230.059C409.141 230.511 409.67 230.866 410.255 231.102H410.274Z" fill="#EBEBEB"/>
<path d="M414.562 248.988C416.576 250.478 425.116 251.152 425.116 251.152C425.116 251.152 421.971 243.184 419.957 241.694C418.986 241.113 417.834 240.914 416.724 241.136C415.615 241.358 414.627 241.984 413.954 242.894C413.281 243.803 412.97 244.93 413.083 246.056C413.195 247.181 413.722 248.225 414.562 248.983V248.988Z" fill="#EBEBEB"/>
<path d="M428.574 213.613C426.779 215.358 418.403 217.166 418.403 217.166C418.403 217.166 420.454 208.852 422.249 207.107C423.133 206.395 424.252 206.038 425.385 206.107C426.518 206.175 427.585 206.665 428.377 207.479C429.168 208.293 429.627 209.373 429.664 210.508C429.7 211.642 429.312 212.75 428.574 213.613Z" fill="#EBEBEB"/>
<path d="M433.341 234.592C431.103 235.722 422.573 234.943 422.573 234.943C422.573 234.943 427.02 227.622 429.258 226.492C429.795 226.16 430.394 225.944 431.019 225.856C431.644 225.768 432.28 225.811 432.888 225.982C433.495 226.153 434.06 226.448 434.548 226.849C435.035 227.25 435.434 227.747 435.719 228.31C436.004 228.873 436.169 229.489 436.203 230.119C436.237 230.748 436.141 231.379 435.919 231.969C435.697 232.56 435.355 233.098 434.914 233.549C434.474 234.001 433.944 234.356 433.359 234.592H433.341Z" fill="#EBEBEB"/>
<path d="M435.159 255.616C433.145 257.106 424.605 257.78 424.605 257.78C424.605 257.78 427.749 249.813 429.764 248.323C430.735 247.742 431.887 247.543 432.997 247.765C434.106 247.986 435.094 248.613 435.767 249.522C436.44 250.431 436.75 251.559 436.638 252.684C436.526 253.81 435.999 254.853 435.159 255.612V255.616Z" fill="#EBEBEB"/>
<path d="M435.865 266.281C435.865 266.281 424.86 264.081 421.926 261.147C418.991 258.213 405.785 253.079 404.318 256.746C402.85 260.414 384.509 272.883 396.981 275.083C409.453 277.284 426.328 278.017 429.991 276.55C433.655 275.083 435.865 266.281 435.865 266.281Z" fill="#A8A8A8"/>
<path opacity="0.2" d="M396.986 273.721C409.458 275.921 426.332 276.655 429.996 275.188C432.789 274.072 434.731 268.705 435.496 266.204L435.865 266.281C435.865 266.281 433.664 275.083 429.996 276.55C426.328 278.017 409.453 277.283 396.986 275.083C393.386 274.45 392.356 272.956 392.743 271.069C393.053 272.3 394.306 273.247 396.986 273.721Z" fill="black"/>
</g>
<defs>
<linearGradient id="paint0_linear" x1="295.211" y1="61.7254" x2="295.211" y2="2.28887e-05" gradientUnits="userSpaceOnUse">
<stop stop-color="#808080" stop-opacity="0.25"/>
<stop offset="0.54" stop-color="#808080" stop-opacity="0.12"/>
<stop offset="1" stop-color="#808080" stop-opacity="0.1"/>
</linearGradient>
<linearGradient id="paint1_linear" x1="109.243" y1="230.386" x2="109.243" y2="230.333" gradientUnits="userSpaceOnUse">
<stop stop-color="#808080" stop-opacity="0.25"/>
<stop offset="0.54" stop-color="#808080" stop-opacity="0.12"/>
<stop offset="1" stop-color="#808080" stop-opacity="0.1"/>
</linearGradient>
<linearGradient id="paint2_linear" x1="83407.9" y1="154267" x2="83407.9" y2="59825.6" gradientUnits="userSpaceOnUse">
<stop stop-color="#808080" stop-opacity="0.25"/>
<stop offset="0.54" stop-color="#808080" stop-opacity="0.12"/>
<stop offset="1" stop-color="#808080" stop-opacity="0.1"/>
</linearGradient>
<clipPath id="clip0">
<rect width="437" height="327" fill="white"/>
</clipPath>
</defs>
</svg>
